<?xml version="1.0" encoding="utf-8"?>
<!-- Generator: Adobe Illustrator 25.4.1, SVG Export Plug-In . SVG Version: 6.00 Build 0)  -->
<!DOCTYPE svg PUBLIC "-//W3C//DTD SVG 1.1//EN" "http://www.w3.org/Graphics/SVG/1.1/DTD/svg11.dtd" [
	<!ENTITY ns_extend "http://ns.adobe.com/Extensibility/1.0/">
	<!ENTITY ns_ai "http://ns.adobe.com/AdobeIllustrator/10.0/">
	<!ENTITY ns_graphs "http://ns.adobe.com/Graphs/1.0/">
	<!ENTITY ns_vars "http://ns.adobe.com/Variables/1.0/">
	<!ENTITY ns_imrep "http://ns.adobe.com/ImageReplacement/1.0/">
	<!ENTITY ns_sfw "http://ns.adobe.com/SaveForWeb/1.0/">
	<!ENTITY ns_custom "http://ns.adobe.com/GenericCustomNamespace/1.0/">
	<!ENTITY ns_adobe_xpath "http://ns.adobe.com/XPath/1.0/">
]>
<svg version="1.1" id="Livello_1" xmlns:x="&ns_extend;" xmlns:i="&ns_ai;" xmlns:graph="&ns_graphs;"
	 xmlns="http://www.w3.org/2000/svg" xmlns:xlink="http://www.w3.org/1999/xlink" x="0px" y="0px" viewBox="0 0 4000 4000"
	 style="enable-background:new 0 0 4000 4000;" xml:space="preserve">
<style type="text/css">
	.Ombra_x0020_esterna{fill:none;}
	.Bagliore_x0020_esterno_x0020_5_x0020_pt{fill:none;}
	.Jive_GS{fill:#A6D0E4;}
</style>
<metadata>
	<sfw  xmlns="&ns_sfw;">
		<slices></slices>
		<sliceSourceBounds  bottomLeftOrigin="true" height="3970.9" width="3971" x="20.5" y="-3993.4"></sliceSourceBounds>
	</sfw>
</metadata>
<g>
	<g>
		<path d="M571.5,2686.6c7.5-12.2,15-24.4,22.5-36.6c20.4-33.2,40.9-66.4,61.3-99.6c30.2-49.1,60.5-98.2,90.7-147.3
			c36.9-59.9,73.8-119.8,110.7-179.7c40.4-65.6,80.8-131.2,121.2-196.8c40.8-66.2,81.6-132.5,122.4-198.7
			c38-61.8,76.1-123.5,114.1-185.3c32.2-52.2,64.3-104.4,96.5-156.6c23.1-37.5,46.2-75.1,69.4-112.6c11-17.8,22-35.5,32.9-53.4
			c0.5-0.8,0.9-1.5,1.4-2.3c8-12.6,12.3-26.1,13-40.7c3.3-14.6,2.6-29.1-2-43.7c-3.4-14.2-9.9-26.7-19.6-37.2
			c-7.7-11.9-18-21.3-30.7-28.2c-25.4-13.4-56.2-20.2-84.4-11c-27.5,8.9-50.1,25.4-65.4,50.3c-7.5,12.2-15,24.4-22.5,36.6
			c-20.4,33.2-40.9,66.4-61.3,99.6c-30.2,49.1-60.5,98.2-90.7,147.3c-36.9,59.9-73.8,119.8-110.7,179.7
			c-40.4,65.6-80.8,131.2-121.2,196.8c-40.8,66.2-81.6,132.5-122.4,198.7c-38,61.8-76.1,123.5-114.1,185.3
			c-32.2,52.2-64.3,104.4-96.5,156.6c-23.1,37.5-46.2,75.1-69.4,112.6c-11,17.8-22,35.5-32.9,53.4c-0.5,0.8-0.9,1.5-1.4,2.3
			c-8,12.6-12.3,26.1-13,40.7c-3.3,14.6-2.6,29.1,2,43.7c3.4,14.2,9.9,26.7,19.6,37.2c7.7,11.9,18,21.3,30.7,28.2
			c25.4,13.4,56.2,20.2,84.4,11C533.6,2728.1,556.2,2711.6,571.5,2686.6L571.5,2686.6z"/>
		<path d="M1225.6,1318c6,9.6,12,19.2,18,28.8c16.2,26,32.3,51.9,48.5,77.9c24,38.6,48.1,77.2,72.1,115.8
			c29.2,46.8,58.3,93.7,87.5,140.5c32.1,51.6,64.2,103.2,96.3,154.8c32.2,51.8,64.5,103.5,96.7,155.3
			c30.2,48.5,60.4,97.1,90.7,145.6c25.4,40.8,50.8,81.6,76.2,122.4c18.4,29.5,36.7,59,55.1,88.5c8.6,13.9,17.2,27.8,25.9,41.6
			c0.4,0.6,0.7,1.2,1.1,1.8c6.9,12.8,16.3,23,28.2,30.7c10.6,9.7,23,16.2,37.2,19.6c14.6,4.6,29.1,5.2,43.7,2
			c14.6-0.7,28.1-5,40.7-13c7.4-5.7,14.8-11.4,22.2-17.1c13.6-13.7,23-29.8,28.2-48.3c1.3-9.7,2.6-19.4,3.9-29.1
			c-0.1-19.8-5-38.2-14.9-55.3c-6-9.6-12-19.2-18-28.8c-16.2-26-32.3-51.9-48.5-77.9c-24-38.6-48.1-77.2-72.1-115.8
			c-29.2-46.8-58.3-93.7-87.5-140.5c-32.1-51.6-64.2-103.2-96.3-154.8c-32.2-51.8-64.5-103.5-96.7-155.3
			c-30.2-48.5-60.4-97.1-90.7-145.6c-25.4-40.8-50.8-81.6-76.2-122.4c-18.4-29.5-36.7-59-55.1-88.5c-8.6-13.9-17.2-27.8-25.9-41.6
			c-0.4-0.6-0.7-1.2-1.1-1.8c-6.9-12.8-16.3-23-28.2-30.7c-10.6-9.7-23-16.2-37.2-19.6c-14.6-4.6-29.1-5.2-43.7-2
			c-14.6,0.7-28.1,5-40.7,13c-7.4,5.7-14.8,11.4-22.2,17.1c-13.6,13.7-23,29.8-28.2,48.3c-1.3,9.7-2.6,19.4-3.9,29.1
			C1210.7,1282.5,1215.7,1300.9,1225.6,1318L1225.6,1318z"/>
		<path d="M3378.6,1908.7c-0.1-47.5-5.3-94.6-12.7-141.5c-5.8-36.5-14.4-72.5-25.9-107.7c-14-43.1-31.7-85.5-52.1-126
			c-16.2-32.1-34.8-63-55.7-92.3c-25.9-36.4-54-71.7-85-104c-31.2-32.4-65.7-60.6-101.4-87.9c-64.8-49.6-137.5-86.5-214.1-114.6
			c-34.5-12.7-70-22.6-106.1-29.8c-46.1-9.1-93.3-15.1-140.2-17c-38.4-1.5-77,0.1-115.2,4.7c-46.1,5.6-91.6,12.8-136.4,25.5
			c-43.9,12.4-86.4,29.5-127.8,48.5c-32.8,15-64.4,32.5-94.5,52.3c-67.4,44.3-129.9,97.7-181.3,160c-28.3,34.4-55.1,70.2-78,108.4
			c-23.4,39-41.9,80-59.2,122.1c-31.8,77.5-48.3,160-54.8,243.3c-3,38.4-2.9,77.1,0.3,115.6c3.8,46.2,10.5,92.7,21.5,137.8
			c8.7,35.9,20.3,71,34.4,105.1c17.3,41.7,35.8,82.3,59.2,121c23.2,38.3,50.3,74.4,79,108.9c23.1,27.7,48.2,53.7,75.2,77.6
			c60.4,53.6,127.9,100.1,201.6,133.4c41.3,18.7,83.4,35.5,127.1,47.7c45.1,12.6,91.1,19.8,137.5,25.2
			c84.7,9.9,170.9,3.6,254.4-13.3c36.3-7.4,72.1-17.6,106.8-30.5c42.1-15.7,83.7-33.9,122.9-55.7c39.5-22,75.6-48.2,111.2-75.8
			c28.5-22.1,55.4-46.2,80.3-72.4c30.7-32.1,58.5-67.3,84.1-103.6c20.9-29.6,39.6-60.9,55.7-93.4c36.7-73.8,64.4-152.5,76.9-234.1
			C3373.5,2000.7,3378.5,1954.9,3378.6,1908.7c0-28.1-12.2-57.6-32.1-77.4c-9.9-10.7-21.7-18.2-35.2-22.6c-13-6.9-27.1-10-42.2-9.4
			c-28.3,1.3-57.7,10.6-77.4,32.1c-19.7,21.4-32,47.7-32.1,77.4c0,31.8-2.1,63.5-6.3,95c1.3-9.7,2.6-19.4,3.9-29.1
			c-8.4,62.3-25,123.2-49.3,181.2c3.7-8.7,7.4-17.4,11-26.2c-23.9,56.6-55.1,109.8-92.5,158.5c5.7-7.4,11.4-14.8,17.1-22.2
			c-37.4,48.2-80.7,91.6-128.9,128.9c7.4-5.7,14.8-11.4,22.2-17.1c-48.7,37.5-101.9,68.6-158.5,92.5c8.7-3.7,17.4-7.4,26.2-11
			c-58,24.3-118.9,40.9-181.2,49.3c9.7-1.3,19.4-2.6,29.1-3.9c-63,8.3-126.9,8.3-189.9,0c9.7,1.3,19.4,2.6,29.1,3.9
			c-62.3-8.4-123.2-25-181.2-49.3c8.7,3.7,17.4,7.4,26.2,11c-56.6-23.9-109.8-55.1-158.5-92.5c7.4,5.7,14.8,11.4,22.2,17.1
			c-48.2-37.4-91.6-80.7-128.9-128.9c5.7,7.4,11.4,14.8,17.1,22.2c-37.5-48.7-68.6-101.9-92.5-158.5c3.7,8.7,7.4,17.4,11,26.2
			c-24.3-58-40.9-118.9-49.3-181.2c1.3,9.7,2.6,19.4,3.9,29.1c-8.3-63-8.3-126.9,0-189.9c-1.3,9.7-2.6,19.4-3.9,29.1
			c8.4-62.3,25-123.2,49.3-181.2c-3.7,8.7-7.4,17.4-11,26.2c23.9-56.6,55.1-109.8,92.5-158.5c-5.7,7.4-11.4,14.8-17.1,22.2
			c37.4-48.2,80.7-91.6,128.9-128.9c-7.4,5.7-14.8,11.4-22.2,17.1c48.7-37.5,101.9-68.6,158.5-92.5c-8.7,3.7-17.4,7.4-26.2,11
			c58-24.3,118.9-40.9,181.2-49.3c-9.7,1.3-19.4,2.6-29.1,3.9c63-8.3,126.9-8.3,189.9,0c-9.7-1.3-19.4-2.6-29.1-3.9
			c62.3,8.4,123.2,25,181.2,49.3c-8.7-3.7-17.4-7.4-26.2-11c56.6,23.9,109.8,55.1,158.5,92.5c-7.4-5.7-14.8-11.4-22.2-17.1
			c48.2,37.4,91.6,80.7,128.9,128.9c-5.7-7.4-11.4-14.8-17.1-22.2c37.5,48.7,68.6,101.9,92.5,158.5c-3.7-8.7-7.4-17.4-11-26.2
			c24.3,58,40.9,118.9,49.3,181.2c-1.3-9.7-2.6-19.4-3.9-29.1c4.2,31.5,6.2,63.2,6.3,95c0,28.1,12.2,57.5,32.1,77.4
			c9.9,10.7,21.7,18.2,35.2,22.6c13,6.9,27.1,10,42.2,9.4c28.3-1.3,57.7-10.6,77.4-32.1C3366.2,1964.7,3378.6,1938.4,3378.6,1908.7z
			"/>
		<path d="M2546.4,2729.4c8.6,0,17.1,0,25.7,0c23.4,0,46.8,0,70.3,0c34.5,0,69.1,0,103.6,0c42.3,0,84.5,0,126.8,0
			c46.1,0,92.3,0,138.4,0c46.6,0,93.1,0,139.7,0c43.4,0,86.9,0,130.3,0c36.7,0,73.4,0,110.1,0c26.5,0,53,0,79.5,0
			c12.5,0,25,0,37.5,0c0.5,0,1.1,0,1.6,0c15.1,0.6,29.1-2.6,42.2-9.4c13.6-4.4,25.3-12,35.2-22.6c10.7-9.9,18.2-21.7,22.6-35.2
			c6.9-13,10-27.1,9.4-42.2c-1.3-9.7-2.6-19.4-3.9-29.1c-5.2-18.5-14.6-34.7-28.2-48.3c-7.4-5.7-14.8-11.4-22.2-17.1
			c-17.1-9.9-35.5-14.9-55.3-14.9c-8.6,0-17.1,0-25.7,0c-23.4,0-46.8,0-70.3,0c-34.5,0-69.1,0-103.6,0c-42.3,0-84.5,0-126.8,0
			c-46.1,0-92.3,0-138.4,0c-46.6,0-93.1,0-139.7,0c-43.4,0-86.9,0-130.3,0c-36.7,0-73.4,0-110.1,0c-26.5,0-53,0-79.5,0
			c-12.5,0-25,0-37.5,0c-0.5,0-1.1,0-1.6,0c-15.1-0.6-29.1,2.6-42.2,9.4c-13.6,4.4-25.3,12-35.2,22.6c-10.7,9.9-18.2,21.7-22.6,35.2
			c-6.9,13-10,27.1-9.4,42.2c1.3,9.7,2.6,19.4,3.9,29.1c5.2,18.5,14.6,34.7,28.2,48.3c7.4,5.7,14.8,11.4,22.2,17.1
			C2508.3,2724.3,2526.7,2729.3,2546.4,2729.4L2546.4,2729.4z"/>
	</g>
</g>
<g>
	<g>
		<path d="M3820.5,2008c-0.1,50.6-2,101.2-6,151.6c-1.9,24.5-4.3,48.9-7.2,73.3c-0.7,6.1-1.5,12.1-2.2,18.2
			c-1.9,15.4,2.9-20.7-0.1,0.6c-1.7,12-3.5,24.1-5.4,36.1c-15.5,96.6-38.4,191.9-68.6,284.9c-14.6,45.1-31,89.6-49,133.4
			c-1.3,3.1-2.6,6.2-3.9,9.3c-3.5,8.7,4.1-9.5,3.7-8.8c-2.5,5.3-4.6,10.8-7,16.2c-5,11.6-10.2,23.1-15.5,34.5
			c-9.8,21.3-20,42.5-30.6,63.5c-42.6,84.2-91.4,165.1-146,242.1c-13.9,19.6-29.3,38.4-43,58.2c-0.4,0.6,11.5-14.7,5.7-7.4
			c-1.6,2-3.1,3.9-4.6,5.9c-3.6,4.6-7.2,9.1-10.8,13.7c-7.8,9.7-15.7,19.4-23.6,29c-29.7,35.7-60.8,70.4-93,103.8
			c-32.8,34.1-66.9,66.9-102.2,98.4c-17.3,15.5-34.9,30.7-52.8,45.5c-8.9,7.4-18,14.8-27,22c-4.5,3.6-9.1,7.2-13.7,10.8
			c-2,1.5-3.9,3.1-5.9,4.6c-8.2,6.5,17.5-13.3,3.5-2.7c-75.2,56.8-153.8,108.7-236.4,154.3c-41.8,23.1-84.6,44.6-128,64.4
			c-9.9,4.5-19.9,9-30,13.4c-5.4,2.4-10.9,4.5-16.2,7c-0.7,0.3,17.5-7.2,8.8-3.7c-3.9,1.6-7.8,3.2-11.7,4.8
			c-21.9,9-44,17.5-66.2,25.6c-90.6,33.1-183.7,59.3-278.3,78.2c-24.6,4.9-49.3,9.3-74.1,13.3c-11.2,1.8-22.3,3.4-33.5,5
			c-21.3,3,14.8-1.8-0.6,0.1c-6.9,0.8-13.9,1.7-20.8,2.5c-49.9,5.8-100,9.6-150.1,11.5c-100,3.7-200.3-0.3-299.7-12.1
			c-6.1-0.7-12.1-1.5-18.2-2.3c-9.7-1.2,10.6,1.5,9.8,1.3c-3.4-0.6-6.9-1-10.3-1.4c-12-1.7-24.1-3.5-36.1-5.5
			c-23.9-3.9-47.7-8.2-71.5-12.9c-47.9-9.6-95.5-21.1-142.5-34.5c-46.6-13.2-92.7-28.2-138.1-44.9c-22.2-8.2-44.2-16.8-66.1-25.8
			c-3.1-1.3-6.2-2.8-9.3-3.9c-0.7-0.3,17.4,7.5,8.8,3.7c-5.4-2.4-10.8-4.6-16.2-7c-10.8-4.7-21.5-9.5-32.2-14.4
			c-86.6-39.8-170.2-86.2-249.9-138.6c-39-25.7-75.7-54.3-113.9-81c20.6,14.4,4.3,3.3-0.4-0.4c-4.6-3.6-9.1-7.2-13.7-10.9
			c-9.7-7.8-19.4-15.7-28.9-23.7c-17.8-14.9-35.4-30.1-52.7-45.7c-69.8-62.7-134.9-130.5-194.7-202.7c-7.4-9-14.8-18-22-27.1
			c-3.6-4.5-7.2-9.1-10.8-13.7c-11.7-14.8,8,10.7-0.4-0.4c-14.5-19.2-28.9-38.6-42.8-58.3c-27.4-38.8-53.3-78.6-77.7-119.4
			c-24.1-40.2-46.6-81.3-67.7-123.1c-10.5-21-20.7-42.2-30.5-63.6c-4.9-10.7-9.7-21.5-14.4-32.3c-1.4-3.1-9.5-22.2-3.6-8.4
			c5.8,13.6-3.2-7.9-4.4-10.8c-36.2-89-65.7-180.7-87.9-274.1c-11.4-47.8-20.9-96.1-28.6-144.7c-1.8-11.2-3.4-22.3-5-33.5
			c-2.2-15.4,2.4,18.9,0-0.6c-0.9-6.9-1.7-13.9-2.5-20.8c-2.8-24.4-5.1-48.9-7-73.4c-7.6-100-7.4-200.6,0.6-300.6
			c2-25.3,4.6-50.6,7.6-75.9c0.7-6.1,1.6-12.1,2.3-18.2c0.1-0.8-2.7,19.4-1.3,9.8c0.4-2.6,0.7-5.2,1.1-7.8
			c1.8-12.9,3.8-25.8,5.9-38.6c7.9-48.5,17.7-96.7,29.3-144.4c22.8-93.4,53.1-184.5,89.3-273.5c7.2-17.6-5.8,13.2,0.2-0.5
			c2-4.6,4-9.3,6-13.9c5.1-11.6,10.2-23.1,15.5-34.5c10.2-22.1,20.8-44,31.8-65.7c21.2-41.7,44-82.7,68.3-122.7
			c24.6-40.6,50.7-80.3,78.3-119c6.3-8.8,12.6-17.6,19.1-26.2c3.5-4.7,6.9-9.3,10.4-14c1.9-2.5,15.8-20.7,6.9-9.2
			c-8.6,11.1,3.2-4,5.6-7.1c3.6-4.6,7.2-9.1,10.9-13.6c7.8-9.7,15.7-19.3,23.7-28.9c60.2-71.9,125.7-139.4,195.8-201.7
			c17.4-15.4,35-30.6,53-45.4c9-7.4,18-14.7,27.1-22c3.9-3.1,7.8-6.2,11.7-9.3c15.6-12.3-13,9.8,2.4-1.9
			c37.8-28.6,76.5-56.1,116.3-81.9c79.3-51.5,162.3-97.1,248.4-136.3c10.7-4.9,21.5-9.7,32.3-14.3c5.7-2.5,24.4-8.9,0.5-0.3
			c6.3-2.3,12.5-5.2,18.7-7.7c21.9-8.9,44-17.4,66.3-25.4c44.7-16.2,90.1-30.7,135.9-43.5c47.1-13.1,94.7-24.4,142.7-33.9
			c23.8-4.7,47.6-8.9,71.6-12.7c12-1.9,24.1-3.6,36.1-5.3c9.6-1.4-10.6,1.4-9.8,1.3c3.5-0.4,6.9-0.9,10.4-1.3
			c6.9-0.9,13.9-1.7,20.8-2.5c99.5-11.3,199.9-14.8,300-10.5c50.1,2.1,100.1,6.3,149.9,12.3c5.2,0.6,10.4,1.4,15.6,2
			c-26.4-3-5.6-0.7,0.6,0.1c12.9,1.8,25.8,3.8,38.6,5.9c23.9,3.9,47.7,8.3,71.4,13.1c95.3,19.4,189.1,46.2,280.3,80.1
			c22.2,8.2,44.1,17,66,26c13.9,5.7-18.6-8,0.5,0.2c4.6,2,9.3,4,13.9,6c11.5,5.1,23,10.2,34.5,15.5c43.3,20.1,85.9,41.8,127.6,65.1
			c40.8,22.8,80.8,47.1,119.8,72.8c20.2,13.3,40.1,27,59.7,41c8.8,6.3,17.5,12.7,26.2,19.1c4.7,3.5,9.3,7,14,10.5c2.7,2,5.3,4,7.9,6
			c9.1,6.9-3-2.1-5.5-4.2c36,30.7,73.6,59.4,108.8,91.2c34.5,31.1,67.8,63.6,100,97.1c32.7,34.2,64.1,69.6,94.2,106.1
			c7.4,9,14.7,18,21.9,27.1c3.1,3.9,6.2,7.8,9.2,11.8c3.2,4.1,8.6,12.9-4.2-5.5c1.9,2.7,4.1,5.3,6.1,7.9
			c14.1,18.5,27.8,37.3,41.2,56.4c54.8,77.8,103.7,159.8,146.2,244.9c10.5,21,20.6,42.3,30.3,63.7c4.9,10.7,9.6,21.5,14.3,32.3
			c1,2.3,2,4.7,3,7c3.8,8.6-4-9.5-3.7-8.8c2.2,6.3,5.2,12.5,7.7,18.7c18.1,44.7,34.6,90.1,49.2,136.1c29.5,92.4,51.8,187.1,66.7,283
			c1.9,12,3.2,24.2,5.3,36.1c0.1,0.8-2.5-19.4-1.3-9.8c0.4,3.5,0.9,6.9,1.3,10.4c0.7,6.1,1.5,12.1,2.2,18.2
			c2.7,23.5,4.9,47.1,6.7,70.8C3818.7,1910.3,3820.4,1959.2,3820.5,2008c0.1,44.7,39.3,87.6,85.5,85.5c46.3-2.1,85.6-37.6,85.5-85.5
			c-0.3-206.3-31.9-413.9-95.6-610.2c-61.6-189.6-151.3-370.7-266.9-533.2c-118.9-167.1-260.7-313.4-423.4-438.1
			c-158.3-121.4-334.9-216.4-522.1-285.1c-192.7-70.8-397.6-109.5-602.6-117.4c-207.2-8-417.2,16.9-616.7,73.4
			c-192,54.4-377.1,138.5-543.9,248.2c-165.6,108.9-316,241.9-442.1,394.9c-130.7,158.7-235.1,333.8-313.1,524
			c-77.7,189.4-123,390.7-138.8,594.6c-16.1,207.7,1.7,418.9,50.8,621.3c47.2,194.5,125.3,383,229,554.2
			c102.6,169.4,231.1,324.6,379.3,456c148.3,131.5,315.5,242.2,496.3,323.8c191.9,86.7,393,141.9,602,166.3
			c207.8,24.2,419.2,13.5,624.2-28c197-39.9,388.4-111.7,564-209.5c173.1-96.3,332.7-219.9,469.4-363.2
			c136.4-143,252.8-306.8,340.8-483.8c90.1-181.2,153.8-375.5,184.4-575.7c15.8-103.5,24.9-207.7,25-312.4
			c0.1-44.7-39.4-87.6-85.5-85.5C3859.6,1924.6,3820.6,1960.1,3820.5,2008z"/>
	</g>
</g>
<g>
</g>
<g>
</g>
<g>
</g>
<g>
</g>
<g>
</g>
</svg>
