<?xml version="1.0" encoding="utf-8"?>
<!-- Generator: Adobe Illustrator 25.4.1, SVG Export Plug-In . SVG Version: 6.00 Build 0)  -->
<!DOCTYPE svg PUBLIC "-//W3C//DTD SVG 1.1//EN" "http://www.w3.org/Graphics/SVG/1.1/DTD/svg11.dtd" [
	<!ENTITY ns_extend "http://ns.adobe.com/Extensibility/1.0/">
	<!ENTITY ns_ai "http://ns.adobe.com/AdobeIllustrator/10.0/">
	<!ENTITY ns_graphs "http://ns.adobe.com/Graphs/1.0/">
	<!ENTITY ns_vars "http://ns.adobe.com/Variables/1.0/">
	<!ENTITY ns_imrep "http://ns.adobe.com/ImageReplacement/1.0/">
	<!ENTITY ns_sfw "http://ns.adobe.com/SaveForWeb/1.0/">
	<!ENTITY ns_custom "http://ns.adobe.com/GenericCustomNamespace/1.0/">
	<!ENTITY ns_adobe_xpath "http://ns.adobe.com/XPath/1.0/">
]>
<svg version="1.1" id="Livello_1" xmlns:x="&ns_extend;" xmlns:i="&ns_ai;" xmlns:graph="&ns_graphs;"
	 xmlns="http://www.w3.org/2000/svg" xmlns:xlink="http://www.w3.org/1999/xlink" x="0px" y="0px" viewBox="0 0 4000 4000"
	 style="enable-background:new 0 0 4000 4000;" xml:space="preserve">
<style type="text/css">
	.Ombra_x0020_esterna{fill:none;}
	.Bagliore_x0020_esterno_x0020_5_x0020_pt{fill:none;}
	.Jive_GS{fill:#A6D0E4;}
	.st0{fill:#055159;}
</style>
<metadata>
	<sfw  xmlns="&ns_sfw;">
		<slices></slices>
		<sliceSourceBounds  bottomLeftOrigin="true" height="3997.8" width="3975.9" x="18" y="-4006.8"></sliceSourceBounds>
	</sfw>
</metadata>
<g>
	<g>
		<path class="st0" d="M3670.1,2008c-0.1,83.8-5.7,167.5-16.8,250.5c1.9-14.4,3.9-28.7,5.8-43.1c-22,160.9-65.1,318.3-128.1,467.9
			c5.4-12.9,10.9-25.8,16.3-38.7c-61.9,145.9-142.4,283.4-239.2,408.9c8.4-10.9,16.9-21.9,25.3-32.8
			c-95.4,123-205.9,233.7-328.9,329.1c10.9-8.4,21.9-16.9,32.8-25.3c-125.1,96.6-262.2,177-407.8,238.6
			c12.9-5.4,25.8-10.9,38.7-16.3c-147.5,61.9-302.6,104.2-461.1,125.7c14.4-1.9,28.7-3.9,43.1-5.8c-161.9,21.5-326.2,21.5-488.1,0
			c14.4,1.9,28.7,3.9,43.1,5.8c-158.5-21.5-313.6-63.8-461.1-125.7c12.9,5.4,25.8,10.9,38.7,16.3
			c-145.6-61.6-282.7-141.9-407.8-238.6c10.9,8.4,21.9,16.9,32.8,25.3c-122.9-95.5-233.5-206.1-328.9-329.1
			c8.4,10.9,16.9,21.9,25.3,32.8c-96.8-125.5-177.3-263-239.2-408.9c5.4,12.9,10.9,25.8,16.3,38.7c-63-149.6-106.1-307-128.1-467.9
			c1.9,14.4,3.9,28.7,5.8,43.1c-22.3-166.2-22.3-334.9,0-501c-1.9,14.4-3.9,28.7-5.8,43.1c22-160.9,65.1-318.3,128.1-467.9
			c-5.4,12.9-10.9,25.8-16.3,38.7c61.9-145.9,142.4-283.4,239.2-408.9c-8.4,10.9-16.9,21.9-25.3,32.8
			c95.4-123,205.9-233.7,328.9-329.1c-10.9,8.4-21.9,16.9-32.8,25.3c125.1-96.6,262.2-177,407.8-238.6
			c-12.9,5.4-25.8,10.9-38.7,16.3c147.5-61.9,302.6-104.2,461.1-125.7c-14.4,1.9-28.7,3.9-43.1,5.8c161.9-21.5,326.2-21.5,488.1,0
			c-14.4-1.9-28.7-3.9-43.1-5.8c158.5,21.5,313.6,63.8,461.1,125.7c-12.9-5.4-25.8-10.9-38.7-16.3
			c145.6,61.6,282.7,141.9,407.8,238.6c-10.9-8.4-21.9-16.9-32.8-25.3c122.9,95.5,233.5,206.1,328.9,329.1
			c-8.4-10.9-16.9-21.9-25.3-32.8c96.8,125.5,177.3,263,239.2,408.9c-5.4-12.9-10.9-25.8-16.3-38.7c63,149.6,106.1,307,128.1,467.9
			c-1.9-14.4-3.9-28.7-5.8-43.1C3664.4,1840.5,3669.9,1924.2,3670.1,2008c0.1,41.6,18,85.1,47.4,114.5
			c28.1,28.1,74.2,49.2,114.5,47.4c87.6-3.9,162.1-71.2,161.9-161.9c-0.3-206.4-31.5-415.5-95-612
			c-61.4-189.7-149.9-372.3-265.3-535.1c-60.3-85.1-126.2-167-198.4-242.3c-72.5-75.6-151.6-143-234.5-206.9
			c-158.1-121.9-334.3-215.3-521.4-284.5c-191.9-71-397-108.8-601.3-116.8c-206.1-8.1-416.5,17.4-614.8,74
			c-191.2,54.6-376.7,138.8-542.4,248.7c-164.4,109-314.7,240.7-439.7,393.5c-66.3,81-128.2,165.8-181.8,255.8
			c-54.3,91-98.9,186.5-139,284.5C82.6,1457,39.4,1659.2,23.6,1863.7c-16.1,207.9,2.9,420.2,51.8,622.7
			c47,194.5,125.5,384.2,228.8,555.4c101.7,168.6,229.3,324.5,376.3,455.6c147,131.1,312.3,243.2,491.8,324.8
			c97.4,44.3,197.4,83,300.5,111.9c104.6,29.3,211.4,47.6,319.2,60.2c207.1,24.3,417.9,11.7,622-30
			c196.1-40,387.3-113.3,561.8-211.2c171.5-96.2,330.6-220.2,466-362.9c135.3-142.7,252-306.2,339.3-482.5
			c90-181.7,155.2-375.7,185.8-576.3c16.4-107.3,26.8-215,26.9-323.6c0.1-41.5-18.1-85.2-47.4-114.5
			c-28.1-28.1-74.2-49.2-114.5-47.4C3744.2,1850,3670.2,1917.2,3670.1,2008z"/>
	</g>
</g>
<g>
	<g>
		<path class="st0" d="M627.2,2719.2c7.5-12.2,15-24.4,22.5-36.6c20.4-33.2,40.9-66.4,61.3-99.6c30.2-49.1,60.5-98.2,90.7-147.3
			c36.9-59.9,73.8-119.8,110.7-179.7c40.4-65.6,80.8-131.2,121.2-196.8c40.8-66.2,81.6-132.5,122.4-198.7
			c38-61.8,76.1-123.5,114.1-185.3c32.2-52.2,64.3-104.4,96.5-156.6c23.1-37.5,46.2-75.1,69.4-112.6c11-17.8,22-35.6,32.9-53.4
			c0.5-0.8,0.9-1.5,1.4-2.3c12.7-20,19.6-41.5,20.6-64.7c5.2-23.1,4.1-46.3-3.1-69.4c-5.4-22.6-15.8-42.4-31.1-59.2
			c-12.3-18.9-28.5-33.9-48.8-44.8c-13.9-5.8-27.7-11.7-41.6-17.5c-30.8-8.3-61.7-8.3-92.5,0c-13.9,5.8-27.7,11.7-41.6,17.5
			c-26.1,15.5-47,36.3-62.4,62.4c-7.5,12.2-15,24.4-22.5,36.6c-20.4,33.2-40.9,66.4-61.3,99.6c-30.2,49.1-60.5,98.2-90.7,147.3
			c-36.9,59.9-73.8,119.8-110.7,179.7c-40.4,65.6-80.8,131.2-121.2,196.8c-40.8,66.2-81.6,132.5-122.4,198.7
			c-38,61.8-76.1,123.5-114.1,185.3c-32.2,52.2-64.3,104.4-96.5,156.6c-23.1,37.5-46.2,75.1-69.4,112.6c-11,17.8-22,35.6-32.9,53.4
			c-0.5,0.8-0.9,1.5-1.4,2.3c-12.7,20-19.6,41.5-20.6,64.7c-5.2,23.1-4.1,46.3,3.1,69.4c5.4,22.6,15.8,42.4,31.1,59.2
			c12.3,18.9,28.5,33.9,48.8,44.8c13.9,5.8,27.7,11.7,41.6,17.5c30.8,8.3,61.7,8.3,92.5,0c13.9-5.8,27.7-11.7,41.6-17.5
			C591,2766.2,611.8,2745.3,627.2,2719.2L627.2,2719.2z"/>
		<path class="st0" d="M1169.9,1350.5c6,9.6,12,19.2,18,28.8c16.2,26,32.3,51.9,48.5,77.9c24,38.6,48.1,77.2,72.1,115.8
			c29.2,46.8,58.3,93.7,87.5,140.5c32.1,51.6,64.2,103.2,96.3,154.8c32.2,51.8,64.5,103.5,96.7,155.3
			c30.2,48.5,60.4,97.1,90.7,145.6c25.4,40.8,50.8,81.6,76.2,122.4c18.4,29.5,36.7,59,55.1,88.5c8.6,13.9,17.2,27.8,25.9,41.6
			c0.4,0.6,0.7,1.2,1.1,1.8c10.9,20.3,25.9,36.6,44.8,48.8c16.8,15.4,36.5,25.8,59.2,31.1c23.1,7.3,46.3,8.3,69.4,3.1
			c23.2-1.1,44.7-7.9,64.7-20.6c11.7-9.1,23.5-18.1,35.2-27.2c21.6-21.7,36.5-47.3,44.7-76.8c2.1-15.4,4.1-30.8,6.2-46.3
			c-0.1-31.4-8-60.7-23.8-87.8c-6-9.6-12-19.2-18-28.8c-16.2-26-32.3-51.9-48.5-77.9c-24-38.6-48.1-77.2-72.1-115.8
			c-29.2-46.8-58.3-93.7-87.5-140.5c-32.1-51.6-64.2-103.2-96.3-154.8c-32.2-51.8-64.5-103.5-96.7-155.3
			c-30.2-48.5-60.4-97.1-90.7-145.6c-25.4-40.8-50.8-81.6-76.2-122.4c-18.4-29.5-36.7-59-55.1-88.5c-8.6-13.9-17.2-27.8-25.9-41.6
			c-0.4-0.6-0.7-1.2-1.1-1.8c-10.9-20.3-25.9-36.6-44.8-48.8c-16.8-15.4-36.5-25.8-59.2-31.1c-23.1-7.3-46.3-8.3-69.4-3.1
			c-23.2,1.1-44.7,7.9-64.7,20.6c-11.7,9.1-23.5,18.1-35.2,27.2c-21.6,21.7-36.5,47.3-44.7,76.8c-2.1,15.4-4.1,30.8-6.2,46.3
			C1146.2,1294.1,1154.1,1323.4,1169.9,1350.5L1169.9,1350.5z"/>
		<path class="st0" d="M3443.1,1908.7c-0.1-53.2-6.7-106.1-15-158.6c-5.8-36.5-14.4-72.5-25.9-107.7c-5.7-17.5-12-34.7-19.1-51.7
			c-12.5-30.2-24.9-60.5-39.6-89.6c-16.2-32.1-34.8-63-55.7-92.3c-29.1-40.8-60.3-80.9-95.1-117c-35.1-36.4-74.3-67.3-114.4-98
			c-69.3-53.1-147.7-91.1-229.5-121.1c-34.5-12.7-70-22.6-106.1-29.8c-33.1-6.6-66.7-10.8-100.2-14.8c-19-2.3-38.1-3.8-57.2-4.5
			c-38.4-1.5-77,0.1-115.2,4.7c-51.9,6.3-103.2,13.6-153.5,27.8c-49.2,13.9-96.8,33.7-143.2,55c-32.8,15-64.4,32.5-94.5,52.3
			c-41.9,27.6-82.1,58.6-119.5,92.1c-26.9,24.1-51.9,50.2-74.8,78c-31.7,38.5-62.4,78.6-88.1,121.5c-26.3,43.8-46.3,90.2-65.7,137.5
			c-34,82.8-50.2,171.5-57.1,260.5c-3,38.4-2.9,77.1,0.3,115.6c2.8,33.7,7.5,67.4,12.9,100.8c2.9,18.2,6.6,36.2,10.9,54.1
			c8.7,35.9,20.3,71,34.4,105.1c19.5,46.9,39.3,92.9,65.7,136.4c26.1,43,56.9,83.3,89.1,121.9c23.1,27.7,48.2,53.7,75.2,77.6
			c24.1,21.4,49.9,40.9,75.6,60.4c14.1,10.8,28.6,21,43.5,30.7c30.5,19.9,62.4,37.4,95.6,52.3c46.3,20.9,93.5,40.5,142.5,54.2
			c50.6,14.1,102.5,21.4,154.6,27.5c90.4,10.5,182.6,2.5,271.5-15.6c36.3-7.4,72.1-17.6,106.8-30.5c47.2-17.6,94.2-37.7,138.4-62.2
			c44.4-24.7,84.2-54.8,124.2-85.9c28.5-22.1,55.4-46.2,80.3-72.4c34.4-36.1,65.4-75.9,94.1-116.6c20.9-29.6,39.6-60.9,55.7-93.4
			c14.5-29.2,27-59.6,39.3-89.8c6.8-16.7,13-33.7,18.5-50.9c11.4-35.5,19.9-72,25.6-108.8C3436.5,2012.1,3443,1960.7,3443.1,1908.7
			c0.9-24-4.1-46.3-15-67c-7-21.6-19-40.2-36-56c-15.8-17-34.4-29-56-36c-20.7-10.9-43.1-15.9-67-15c-15.4,2.1-30.8,4.1-46.3,6.2
			c-29.5,8.3-55.1,23.2-76.8,44.7c-9.1,11.7-18.1,23.5-27.2,35.2c-15.7,27.1-23.7,56.4-23.8,87.8c0,31.8-2.1,63.5-6.3,95
			c2.1-15.4,4.1-30.8,6.2-46.3c-8.4,62.3-25,123.2-49.3,181.2c5.8-13.9,11.7-27.7,17.5-41.6c-23.9,56.6-55.1,109.8-92.5,158.5
			c9.1-11.7,18.1-23.5,27.2-35.2c-37.4,48.2-80.7,91.6-128.9,128.9c11.7-9.1,23.5-18.1,35.2-27.2c-48.7,37.5-101.9,68.6-158.5,92.5
			c13.9-5.8,27.7-11.7,41.6-17.5c-58,24.3-118.9,40.9-181.2,49.3c15.4-2.1,30.8-4.1,46.3-6.2c-63,8.3-126.9,8.3-189.9,0
			c15.4,2.1,30.8,4.1,46.3,6.2c-62.3-8.4-123.2-25-181.2-49.3c13.9,5.8,27.7,11.7,41.6,17.5c-56.6-23.9-109.8-55.1-158.5-92.5
			c11.7,9.1,23.5,18.1,35.2,27.2c-48.2-37.4-91.6-80.7-128.9-128.9c9.1,11.7,18.1,23.5,27.2,35.2c-37.5-48.7-68.6-101.9-92.5-158.5
			c5.8,13.9,11.7,27.7,17.5,41.6c-24.3-58-40.9-118.9-49.3-181.2c2.1,15.4,4.1,30.8,6.2,46.3c-8.3-63-8.3-126.9,0-189.9
			c-2.1,15.4-4.1,30.8-6.2,46.3c8.4-62.3,25-123.2,49.3-181.2c-5.8,13.9-11.7,27.7-17.5,41.6c23.9-56.6,55.1-109.8,92.5-158.5
			c-9.1,11.7-18.1,23.5-27.2,35.2c37.4-48.2,80.7-91.6,128.9-128.9c-11.7,9.1-23.5,18.1-35.2,27.2c48.7-37.5,101.9-68.6,158.5-92.5
			c-13.9,5.8-27.7,11.7-41.6,17.5c58-24.3,118.9-40.9,181.2-49.3c-15.4,2.1-30.8,4.1-46.3,6.2c63-8.3,126.9-8.3,189.9,0
			c-15.4-2.1-30.8-4.1-46.3-6.2c62.3,8.4,123.2,25,181.2,49.3c-13.9-5.8-27.7-11.7-41.6-17.5c56.6,23.9,109.8,55.1,158.5,92.5
			c-11.7-9.1-23.5-18.1-35.2-27.2c48.2,37.4,91.6,80.7,128.9,128.9c-9.1-11.7-18.1-23.5-27.2-35.2c37.5,48.7,68.6,101.9,92.5,158.5
			c-5.8-13.9-11.7-27.7-17.5-41.6c24.3,58,40.9,118.9,49.3,181.2c-2.1-15.4-4.1-30.8-6.2-46.3c4.2,31.5,6.2,63.2,6.3,95
			c-0.9,24,4.1,46.3,15,67c7,21.6,19,40.2,36,56c15.8,17,34.4,29,56,36c20.7,10.9,43.1,15.9,67,15c15.4-2.1,30.8-4.1,46.3-6.2
			c29.5-8.3,55.1-23.2,76.8-44.7c9.1-11.7,18.1-23.5,27.2-35.2C3435.1,1969.4,3443,1940.1,3443.1,1908.7z"/>
		<path class="st0" d="M2546.4,2793.9c8.6,0,17.1,0,25.7,0c23.4,0,46.8,0,70.3,0c34.5,0,69.1,0,103.6,0c42.3,0,84.5,0,126.8,0
			c46.1,0,92.3,0,138.4,0c46.6,0,93.1,0,139.7,0c43.4,0,86.9,0,130.3,0c36.7,0,73.4,0,110.1,0c26.5,0,53,0,79.5,0
			c12.5,0,25,0,37.5,0c0.5,0,1.1,0,1.6,0c24,0.9,46.3-4.1,67-15c21.6-7,40.2-19,56-36c17-15.8,29-34.4,36-56
			c10.9-20.7,15.9-43.1,15-67c-2.1-15.4-4.1-30.8-6.2-46.3c-8.3-29.5-23.2-55.1-44.7-76.8c-11.7-9.1-23.5-18.1-35.2-27.2
			c-27.1-15.7-56.4-23.7-87.8-23.8c-8.6,0-17.1,0-25.7,0c-23.4,0-46.8,0-70.3,0c-34.5,0-69.1,0-103.6,0c-42.3,0-84.5,0-126.8,0
			c-46.1,0-92.3,0-138.4,0c-46.6,0-93.1,0-139.7,0c-43.4,0-86.9,0-130.3,0c-36.7,0-73.4,0-110.1,0c-26.5,0-53,0-79.5,0
			c-12.5,0-25,0-37.5,0c-0.5,0-1.1,0-1.6,0c-24-0.9-46.3,4.1-67,15c-21.6,7-40.2,19-56,36c-17,15.8-29,34.4-36,56
			c-10.9,20.7-15.9,43.1-15,67c2.1,15.4,4.1,30.8,6.2,46.3c8.3,29.5,23.2,55.1,44.7,76.8c11.7,9.1,23.5,18.1,35.2,27.2
			C2485.8,2785.9,2515,2793.8,2546.4,2793.9L2546.4,2793.9z"/>
	</g>
</g>
<g>
</g>
<g>
</g>
<g>
</g>
<g>
</g>
<g>
</g>
</svg>
